#N canvas 127 23 1440 801 24;
#X obj 573 1075 dac~;
#X obj 567 353 mtof;
#X obj 769 376 vline~;
#X obj 1037 90 vsl 15 128 0 2 0 0 empty empty empty 0 -9 0 10 -262144
-1 -1 2953 1;
#X obj 1058 90 vsl 15 128 0 500 0 1 empty empty empty 0 -9 0 10 -262144
-1 -1 5385 1;
#X obj 1077 90 vsl 15 128 0 1 0 0 empty empty empty 0 -9 0 10 -262144
-1 -1 0 1;
#X floatatom 982 234 5 0 0 0 - - -;
#X floatatom 1042 235 5 0 0 0 - - -;
#X floatatom 1103 234 5 0 0 0 - - -;
#X obj 1099 89 vsl 15 128 0 1000 0 0 empty empty empty 0 -9 0 10 -262144
-1 -1 2 1;
#X floatatom 1168 234 5 0 0 0 - - -;
#X obj 1097 350 0 \$2;
#X obj 1096 312 pack f f;
#X msg 1334 26 \; pd dsp 0;
#X msg 1217 25 \; pd dsp 1;
#X msg 209 365 symbol;
#X obj 208 335 loadbang;
#X obj 336 688 unpack f f;
#X obj 915 274 pack f f f f f;
#X obj 1032 372 * -1;
#X obj 1032 339 - 127;
#X msg 914 305 \$5 \$2 \, \$4 \$3 \$2;
#X obj 567 324 makenote 100 0;
#X obj 544 1005 freeverb~;
#X obj 399 938 hsl 60 30 0 1 0 0 empty empty empty -2 -8 0 10 -262144
-1 -1 0 1;
#X obj 311 936 hsl 60 30 0 1 0 0 empty empty empty -2 -8 0 10 -262144
-1 -1 0 1;
#X obj 235 936 hsl 60 30 0 1 0 0 empty empty empty -2 -8 0 10 -262144
-1 -1 0 1;
#X msg 230 977 wet \$1;
#X msg 313 978 dry \$1;
#X msg 397 975 roomsize \$1;
#X obj 556 -7 table Cmajor 8;
#X msg 554 26 \; Cmajor 0 48 50 51 53 55 56 58 60;
#X obj 566 299 tabread Cmajor;
#X msg 496 268 bang;
#X floatatom 496 299 5 0 0 0 - - -;
#X obj 556 268 drunk 8 8 4;
#X obj 558 80 table Gminor 8;
#X msg 494 456 bang;
#X obj 555 456 drunk 8 8 4;
#X obj 557 487 tabread Gminor;
#X obj 557 171 table Ebmajor 8;
#X msg 498 702 bang;
#X obj 559 703 drunk 8 8 4;
#X obj 561 734 tabread Ebmajor;
#X floatatom 493 738 5 0 0 0 - - -;
#X floatatom 489 486 5 0 0 0 - - -;
#X floatatom 295 294 5 0 0 0 - - -;
#X msg 295 247 bang;
#X obj 561 796 mtof;
#X obj 561 765 makenote 100 0;
#X obj 557 554 mtof;
#X obj 558 523 makenote 100 0;
#X obj 561 858 *~;
#X obj 575 669 *~;
#X obj 934 -2 loadbang;
#X obj 211 1018 loadbang;
#X obj 1097 580 0 \$2;
#X obj 1096 542 pack f f;
#X obj 1096 506 sel 0;
#X obj 915 504 pack f f f f f;
#X obj 1032 602 * -1;
#X obj 1032 569 - 127;
#X msg 914 535 \$5 \$2 \, \$4 \$3 \$2;
#X obj 777 574 vline~;
#X obj 1097 820 0 \$2;
#X obj 1096 782 pack f f;
#X obj 1096 746 sel 0;
#X obj 915 744 pack f f f f f;
#X obj 1032 842 * -1;
#X obj 1032 809 - 127;
#X msg 914 775 \$5 \$2 \, \$4 \$3 \$2;
#X obj 775 824 vline~;
#X obj 573 420 *~;
#X obj 567 384 osc~;
#X obj 482 859 lop~;
#X obj 381 811 mtof;
#X obj 400 785 hsl 128 15 0 127 0 0 empty empty empty -2 -8 0 10 -262144
-1 -1 4500 1;
#X obj 1125 695 * 0.75;
#X obj 572 936 hip~;
#X obj 655 919 hsl 128 15 0 127 0 0 empty empty empty -2 -8 0 10 -262144
-1 -1 0 1;
#X obj 873 367 / 7;
#X obj 401 596 mtof;
#X obj 420 570 hsl 128 15 0 127 0 0 empty empty empty -2 -8 0 10 -262144
-1 -1 2500 1;
#X obj 492 631 lop~;
#X msg 402 530 25;
#X msg 642 879 10;
#X msg 382 745 45;
#X obj 409 386 mtof;
#X obj 428 360 hsl 128 15 0 127 0 0 empty empty empty -2 -8 0 10 -262144
-1 -1 9000 1;
#X obj 500 421 lop~;
#X msg 555 204 \; Ebmajor 0 79 82 84 86 87 89 91 94;
#X obj 1097 276 sel 0;
#X obj 1033 903 max 127;
#X obj 671 1078 dac~;
#X msg 355 1077 dry 0.8;
#X obj 558 585 osc~;
#X obj 561 827 osc~;
#X msg 373 1111 roomsize 0.9;
#X msg 328 1042 wet 0.85;
#X msg 556 113 \; Gminor 0 63 65 67 70 72 74 75 77;
#X msg 410 319 90;
#X msg 933 106 set 0.465;
#X msg 994 56 set 212;
#X msg 1111 56 set 0.173;
#X obj 1036 974 / 1;
#X obj 32 122 shell;
#X floatatom 63 418 5 0 0 0 - - -;
#X obj 104 151 bng 15 250 50 0 empty empty empty 17 7 0 10 -262144
-1 -1;
#X obj 60 323 fromsymbol;
#X obj 57 282 list2symbol;
#X obj 50 244 unpack f s s f;
#X obj 53 168 print \$1;
#X obj 91 369 * -1;
#X msg 24 80 tail -n 1 /tmp/plugoutbeacon;
#X floatatom 110 594 5 0 0 0 - - -;
#X obj 110 542 f;
#X floatatom 186 527 5 0 0 0 - - -;
#X obj 64 473 !=;
#X obj 163 441 spigot;
#X obj 156 28 metro 500;
#X obj 63 -4 loadbang;
#X obj 186 2 tgl 15 0 empty empty empty 17 7 0 10 -262144 -1 -1 0 1
;
#X obj 1032 403 min 127;
#X obj 1033 434 max 127;
#X obj 1032 633 min 127;
#X obj 1031 664 max 127;
#X obj 1031 873 min 127;
#X obj 1042 465 / 60;
#X obj 1042 695 / 60;
#X obj 1032 935 / 60;
#X obj 290 413 moses 100;
#X obj 296 475 moses 60;
#X connect 1 0 73 0;
#X connect 2 0 72 1;
#X connect 3 0 6 0;
#X connect 4 0 7 0;
#X connect 5 0 8 0;
#X connect 6 0 18 1;
#X connect 6 0 59 1;
#X connect 6 0 67 1;
#X connect 7 0 18 2;
#X connect 7 0 59 2;
#X connect 7 0 67 2;
#X connect 8 0 18 3;
#X connect 8 0 67 3;
#X connect 8 0 59 3;
#X connect 9 0 10 0;
#X connect 10 0 12 1;
#X connect 10 0 57 1;
#X connect 11 0 2 2;
#X connect 12 0 11 0;
#X connect 16 0 15 0;
#X connect 16 0 100 0;
#X connect 16 0 84 0;
#X connect 16 0 86 0;
#X connect 18 0 21 0;
#X connect 19 0 122 0;
#X connect 20 0 19 0;
#X connect 21 0 2 0;
#X connect 22 0 1 0;
#X connect 22 1 20 0;
#X connect 22 1 18 0;
#X connect 23 0 93 0;
#X connect 23 1 93 1;
#X connect 24 0 29 0;
#X connect 25 0 28 0;
#X connect 26 0 27 0;
#X connect 27 0 23 0;
#X connect 28 0 23 0;
#X connect 29 0 23 0;
#X connect 32 0 22 0;
#X connect 33 0 35 0;
#X connect 35 0 32 0;
#X connect 35 0 34 0;
#X connect 37 0 38 0;
#X connect 38 0 39 0;
#X connect 38 0 45 0;
#X connect 39 0 51 0;
#X connect 41 0 42 0;
#X connect 42 0 43 0;
#X connect 42 0 44 0;
#X connect 43 0 49 0;
#X connect 46 0 130 0;
#X connect 47 0 46 0;
#X connect 48 0 96 0;
#X connect 49 0 48 0;
#X connect 49 1 67 0;
#X connect 49 1 69 0;
#X connect 50 0 95 0;
#X connect 51 0 50 0;
#X connect 51 1 59 0;
#X connect 51 1 61 0;
#X connect 52 0 78 0;
#X connect 53 0 78 0;
#X connect 54 0 102 0;
#X connect 54 0 103 0;
#X connect 54 0 14 0;
#X connect 54 0 31 0;
#X connect 54 0 90 0;
#X connect 54 0 101 0;
#X connect 54 0 99 0;
#X connect 55 0 98 0;
#X connect 55 0 94 0;
#X connect 55 0 97 0;
#X connect 56 0 63 2;
#X connect 57 0 56 0;
#X connect 58 0 57 0;
#X connect 59 0 62 0;
#X connect 60 0 124 0;
#X connect 61 0 60 0;
#X connect 62 0 63 0;
#X connect 63 0 53 1;
#X connect 64 0 71 2;
#X connect 65 0 64 0;
#X connect 66 0 65 0;
#X connect 67 0 70 0;
#X connect 68 0 126 0;
#X connect 69 0 68 0;
#X connect 70 0 71 0;
#X connect 71 0 52 1;
#X connect 72 0 78 0;
#X connect 73 0 89 0;
#X connect 74 0 52 0;
#X connect 75 0 74 1;
#X connect 76 0 75 0;
#X connect 77 0 59 4;
#X connect 78 0 0 0;
#X connect 78 0 0 1;
#X connect 78 0 23 0;
#X connect 78 0 23 1;
#X connect 79 0 78 0;
#X connect 80 0 18 4;
#X connect 81 0 83 1;
#X connect 82 0 81 0;
#X connect 83 0 53 0;
#X connect 84 0 82 0;
#X connect 84 0 81 0;
#X connect 85 0 79 0;
#X connect 86 0 76 0;
#X connect 86 0 75 0;
#X connect 87 0 89 1;
#X connect 88 0 87 0;
#X connect 89 0 72 0;
#X connect 91 0 12 0;
#X connect 92 0 129 0;
#X connect 94 0 23 0;
#X connect 95 0 83 0;
#X connect 96 0 74 0;
#X connect 97 0 23 0;
#X connect 98 0 23 0;
#X connect 100 0 88 0;
#X connect 100 0 87 0;
#X connect 101 0 3 0;
#X connect 101 0 6 0;
#X connect 102 0 7 0;
#X connect 102 0 4 0;
#X connect 103 0 10 0;
#X connect 103 0 9 0;
#X connect 104 0 67 4;
#X connect 105 0 110 0;
#X connect 105 0 111 0;
#X connect 105 1 107 0;
#X connect 106 0 117 0;
#X connect 106 0 118 0;
#X connect 108 0 112 0;
#X connect 109 0 108 0;
#X connect 110 3 109 0;
#X connect 112 0 106 0;
#X connect 113 0 105 0;
#X connect 115 0 114 0;
#X connect 115 0 117 1;
#X connect 116 0 115 1;
#X connect 117 0 118 1;
#X connect 118 0 130 0;
#X connect 119 0 113 0;
#X connect 120 0 119 0;
#X connect 121 0 119 0;
#X connect 122 0 123 0;
#X connect 123 0 127 0;
#X connect 124 0 125 0;
#X connect 125 0 128 0;
#X connect 126 0 92 0;
#X connect 127 0 80 0;
#X connect 128 0 77 0;
#X connect 129 0 104 0;
#X connect 130 0 115 0;
#X connect 130 0 131 0;
#X connect 130 1 33 0;
#X connect 130 1 115 0;
#X connect 131 0 41 0;
#X connect 131 1 37 0;
#X coords 0 -1 1 1 85 60 1 100 100;
